<?xml version="1.0" encoding="UTF-8" standalone="no"?>
<!-- Created with Inkscape (http://www.inkscape.org/) -->

<svg
   width="89mm"
   height="88.999992mm"
   viewBox="0 0 89 88.999992"
   version="1.1"
   id="svg5"
   xml:space="preserve"
   xmlns:xlink="http://www.w3.org/1999/xlink"
   xmlns="http://www.w3.org/2000/svg"
   xmlns:svg="http://www.w3.org/2000/svg"
   xmlns:rdf="http://www.w3.org/1999/02/22-rdf-syntax-ns#"
   xmlns:cc="http://creativecommons.org/ns#"><defs
     id="defs2"><rect
       x="-110.14842"
       y="797.94543"
       width="471.70432"
       height="122.76083"
       id="rect872" /><pattern
       xlink:href="#pattern3635"
       id="pattern471"
       patternTransform="matrix(0,3.1455959,28.55954,3.1224916e-6,35.169352,21.795589)" /><pattern
       xlink:href="#pattern3635"
       id="pattern469"
       patternTransform="matrix(0,4.7434816,20.188415,2.2072536e-6,35.169352,21.795589)" /><pattern
       xlink:href="#Strips1_1"
       id="pattern3635"
       patternTransform="matrix(0,1.5078414,10.009697,1.0943871e-6,35.169352,21.795589)" /><pattern
       patternUnits="userSpaceOnUse"
       width="2"
       height="1"
       patternTransform="translate(0,0) scale(10,10)"
       id="Strips1_1"><rect
         style="fill:black;stroke:none"
         x="0"
         y="-0.5"
         width="1"
         height="2"
         id="rect2649" /></pattern></defs><g
     id="layer1"
     transform="translate(31.698225,-144.91734)"><rect
       style="fill:#333333;stroke:none;stroke-width:0.750001;stroke-linecap:round;paint-order:stroke fill markers"
       id="rect1597"
       width="89"
       height="88.999992"
       x="-31.698225"
       y="144.91734" /><path
       id="path817"
       style="fill:none;stroke:#ececec;stroke-width:0.75;paint-order:stroke fill markers"
       d="m 25.264733,232.18856 c 1.368121,-1.82898 1.957974,-2.84794 1.571128,-4.09193 1.248705,-1.36398 0.678382,-2.72795 0.391308,-4.09193 1.070726,-1.91278 1.664125,-2.83967 1.0992,-3.93462 1.727488,-1.045 0.30329,-2.66304 -0.08062,-4.09193 2.050998,-1.36398 0.360618,-2.72795 -0.08062,-4.09193 0.804365,-1.36398 0.764776,-2.88526 -1.26044,-4.24924 0.519974,-1.11541 1.113891,-1.9827 -0.552548,-4.09193 1.148293,-2.20338 -0.784081,-2.66698 -0.945821,-3.93462 2.760504,0.32982 3.248461,-1.28972 3.179352,-3.26491 1.844937,-0.13028 3.874605,0.002 2.039652,-2.82161 3.469405,0.39029 2.770207,-1.52503 1.667766,-3.56065 3.642395,-0.88547 3.419626,-2.80833 0.763752,-5.36844 1.182074,-1.4614 2.336247,-2.87236 -0.708038,-4.55646 0.107296,-1.65336 0.912215,-3.22238 -1.656607,-4.95202 1.150307,-1.47313 0.251101,-2.92517 -1.642346,-4.3646 1.19315,-2.5967 -0.910687,-3.23585 -1.218794,-4.7604 0.910918,-0.75059 1.304329,-3.9398 3.132592,0.0379 2.266711,-1.33549 2.933024,-0.002 3.140851,2.16598 3.001144,0.13992 4.557463,1.51941 3.662169,4.46976 3.165175,0.69644 2.524578,2.69701 2.44736,4.36777 3.000762,1.72628 1.937207,3.16444 1.4448,4.31349 2.73207,3.59378 0.386847,2.93043 -1.243027,2.42107 -2.281408,1.16672 -3.637512,0.65187 -3.102674,-2.15572 -3.141514,0.3192 -2.306142,-2.06819 -2.763869,-3.84189 -2.394832,-0.2821 -2.457401,-1.75585 -2.06183,-3.47224 -0.96511,-0.49688 -1.961569,-0.98096 -1.471691,-2.64187 -2.517361,-1.87447 -2.183387,-3.99697 -3.161865,-5.69004 -1.81434,-3.13937 -1.769968,-5.74639 -4.112858,-4.85078 0.447681,-0.76106 -0.319296,-3.61657 -4.229705,-2.09472 -0.170846,-3.60682 -3.064136,-2.27335 -4.543402,-1.71581 -1.232615,-2.8117 -2.416537,-0.98355 -3.412007,-0.59413 -1.8320941,-1.46908 -3.5781675,-1.48875 -4.4820916,0.93285 -3.3011689,-1.98157 -3.0403514,0.41652 -4.1580563,1.68774 -3.21842901,-1.20179 -3.55378414,1.7679 -3.5449654,1.78407 -1.1641642,-0.33017 -0.580649,-4.25613 -4.0802051,-4.04317 -0.5325427,-0.39388 0.139912,-2.08591 -1.8110792,-2.72533 -0.2589404,-1.19872 -0.228093,-2.51863 -2.1286162,-3.03301 0.00572,-1.3215 -0.8367416,-2.19237 -2.3367392,-2.58816 -0.419138,-1.96264 -1.333568,-2.89054 -3.48658,-1.45355 -1.634257,-0.78217 -2.20208,-0.1967 -1.596057,1.8864 -2.285387,1.71368 -0.436425,2.85482 1.046814,4.33882 -0.955865,1.43292 -1.320871,2.79692 1.658497,3.25941 -0.721851,2.46354 0.970563,2.60215 2.162577,3.24165 -0.02599,1.75814 1.092508,2.77554 2.8332645,3.26686 -0.480302,3.30471 1.7135917,3.07946 3.648082,2.72667 -0.8838656,1.11376 -1.5584499,2.26661 -0.8620917,3.68388 -1.3232346,0.82849 -2.3504886,1.77354 -1.2899444,3.59054 -1.9396937,0.72984 -2.0410055,2.06666 -1.2976895,3.61848 -2.5893239,0.73809 -0.5289977,1.22872 -0.6628576,2.46069 -2.0430933,0.87036 -0.8032755,2.66233 -0.3792126,3.28472 -2.2743827,1.01441 -0.7918197,2.72059 0.5209198,4.21892 -0.4064667,1.7579 -1.3942145,3.49122 1.9835522,4.67132 -0.7207334,1.15802 0.1776929,2.23576 1.4355829,2.93648 -0.9406092,2.45541 1.4781591,1.50775 2.4307095,2.30853 -0.3162856,1.62593 0.2278099,2.81366 2.77045749,2.87553 -0.63717338,1.12925 -2.01387329,1.97406 -0.08062308,4.09193 -0.70139029,1.13914 -3.05054351,2.30582 -1.33909771,4.24924 -0.5969554,1.24996 -1.4970489,2.43929 -0.080623,4.09193 -0.7661218,1.30711 -1.9312755,2.58353 -0.080623,4.09193 -0.9661356,1.52052 -1.5992113,2.98553 -0.080623,4.09193 -0.6492541,1.25082 -0.3860351,2.28141 1.17785151,3.93462 -0.4278286,1.28379 -0.18737161,2.26076 1.3351608,3.93462 -0.73076221,1.59861 -1.21329261,3.11447 -0.0806231,4.09193" /><path
       id="path872"
       style="fill:none;stroke:#ececec;stroke-width:0.5;paint-order:stroke fill markers"
       d="m 18.40519,192.78257 c 2e-6,6.12501 -3.02848,6.52834 -6.764301,6.52834 -3.7358206,0 -6.7643026,-0.40333 -6.7643002,-6.52834 1.2e-6,-3.04677 0.7493659,-5.80659 1.9623986,-7.81105 1.2255551,-2.02514 2.8064186,-6.85804 4.6839196,-6.85804 1.932452,0 3.79362,4.90738 5.02627,7.03783 1.15031,1.98813 1.856012,4.67458 1.856013,7.63126 z" /><path
       style="fill:none;stroke:#ececec;stroke-width:0.5;stroke-linecap:round;paint-order:stroke fill markers"
       d="m 11.676265,190.88954 v 2.65163 c -1.6971938,4.07767 -3.8453075,2.82145 -3.9327336,-0.52264"
       id="path875" /><path
       style="fill:none;stroke:#ececec;stroke-width:0.5;stroke-linecap:round;paint-order:stroke fill markers"
       d="m 11.685608,185.77275 v 7.76842 c 1.697194,4.07767 3.845308,2.82145 3.932734,-0.52264"
       id="path1433" /><ellipse
       style="fill:#ffffff;fill-opacity:1;stroke:none;stroke-width:0.325669;stroke-linecap:round;paint-order:stroke fill markers"
       id="path1435"
       cx="98.401886"
       cy="157.50232"
       rx="1.8353691"
       ry="0.77864146"
       transform="rotate(28.854056)" /><path
       style="fill:none;stroke:#ececec;stroke-width:0.386635;stroke-linecap:round;paint-order:stroke fill markers"
       d="m 9.5065496,173.08529 c 0,0 0.456708,-1.18271 2.0679294,-1.18271 1.61122,0 2.067929,1.18271 2.067929,1.18271"
       id="path1609" /><path
       style="fill:#ffffff;fill-opacity:1;stroke:#ececec;stroke-width:0.499999;stroke-linecap:round;paint-order:stroke fill markers"
       d="m -4.7192797,172.80429 -1.0225106,-3.02821"
       id="path3718" /><path
       id="path463"
       style="fill:#ffffff;stroke:#ececec;stroke-width:0.749998;paint-order:stroke fill markers"
       d="m 9.6778367,175.81938 c -0.382844,2.92579 -4.2377475,3.43839 -8.84506647,2.94009 -4.60731803,-0.4983 -8.38203003,-1.83975 -7.83952103,-4.74459 0.803352,-4.30152 4.428168,-4.89368 9.035492,-4.39537 4.607323,0.4983 8.2435228,1.65711 7.6490955,6.19987 z" /><g
       id="g3647"
       transform="matrix(0.17510905,-0.06479502,0.06489362,0.17484299,-30.160156,134.46045)"
       style="stroke-width:1.29157"><rect
         style="fill:#ffffff;fill-opacity:1;stroke:#000000;stroke-width:1.33973;stroke-linecap:round;paint-order:stroke fill markers"
         id="rect3643"
         width="29.90526"
         height="40.241039"
         x="71.361465"
         y="239.32553"
         ry="3.4891076" /><rect
         style="fill:url(#pattern469);fill-opacity:1;stroke:none;stroke-width:0.451595;stroke-linecap:round;paint-order:stroke fill markers"
         id="rect3645"
         width="26.282715"
         height="35.366478"
         x="73.172737"
         y="241.76282" /></g><path
       style="fill:#ffffff;fill-opacity:1;stroke:#ececec;stroke-width:0.499999;stroke-linecap:round;paint-order:stroke fill markers"
       d="m 27.851025,172.80429 1.022511,-3.02821"
       id="path3720" /><path
       id="path467"
       style="fill:#ffffff;stroke:#ececec;stroke-width:0.749998;paint-order:stroke fill markers"
       d="m 29.875537,172.57875 c -0.382843,-2.92579 -4.237748,-3.43839 -8.845066,-2.94009 -4.607318,0.4983 -8.382031,1.83974 -7.839521,4.74459 0.803352,4.30152 4.428168,4.89368 9.035491,4.39537 4.607323,-0.4983 8.243523,-1.65711 7.649096,-6.19987 z" /><g
       id="g3726"
       transform="matrix(0.17510905,-0.06479502,0.06489362,0.17484299,-10.080859,134.22449)"
       style="stroke-width:1.29157"><rect
         style="fill:#ffffff;fill-opacity:1;stroke:#000000;stroke-width:1.33973;stroke-linecap:round;paint-order:stroke fill markers"
         id="rect3722"
         width="29.90526"
         height="40.241039"
         x="71.361465"
         y="239.32553"
         ry="3.4891076" /><rect
         style="fill:url(#pattern471);fill-opacity:1;stroke:none;stroke-width:0.451595;stroke-linecap:round;paint-order:stroke fill markers"
         id="rect3724"
         width="26.282715"
         height="35.366478"
         x="73.172737"
         y="241.76282" /></g><path
       style="fill:#ffffff;fill-opacity:1;stroke:#ececec;stroke-width:0.75;stroke-linecap:round;paint-order:stroke fill markers"
       d="M -4.6718484,164.18211 C -22.412772,145.3574 -9.1866696,148.79432 -3.1145656,162.51359"
       id="path3728" /><ellipse
       style="fill:#ffffff;fill-opacity:1;stroke:none;stroke-width:0.325669;stroke-linecap:round;paint-order:stroke fill markers"
       id="ellipse409"
       cx="78.234917"
       cy="168.614"
       rx="1.8353691"
       ry="0.77864146"
       transform="matrix(-0.87585178,0.48258022,0.48258022,0.87585178,0,0)" /><rect
       style="fill:#333333;stroke:none;stroke-width:0.750001;stroke-linecap:round;paint-order:stroke fill markers"
       id="rect926"
       width="89"
       height="14.917823"
       x="-31.698225"
       y="218.99951" /><text
       xml:space="preserve"
       transform="matrix(0.22606408,0,0,0.22553228,-1.3165668,36.76105)"
       id="text870"
       style="font-size:64px;font-family:AddeX;-inkscape-font-specification:AddeX;white-space:pre;shape-inside:url(#rect872);fill:#ffffff;fill-opacity:1;stroke:#000000;stroke-width:1.10718;paint-order:stroke fill markers"><tspan
         x="-110.14844"
         y="857.13281"
         id="tspan965"><tspan
           style="font-family:Consolas;-inkscape-font-specification:Consolas"
           id="tspan963">LlaMan:\&gt;_</tspan></tspan></text></g><metadata
     id="metadata928"><rdf:RDF><cc:Work
         rdf:about=""><cc:license
           rdf:resource="https://opensource.org/license/mit/" /></cc:Work></rdf:RDF></metadata></svg>
